<svg width="438" height="52" viewBox="0 0 438 52" fill="none" xmlns="http://www.w3.org/2000/svg">
<path d="M12.7708 29.25L1.64583 12.9792C1.08854 12.2292 0.671875 11.4271 0.395833 10.5625C0.130208 9.6875 0 8.82813 0 7.97917C0 6.88542 0.208333 5.84896 0.625 4.875C1.05208 3.90625 1.63542 3.05729 2.375 2.33333C3.125 1.61458 3.98437 1.04167 4.95833 0.625C5.92708 0.208333 6.98958 0 8.14583 0C11.3229 0 13.9375 1.5625 15.9792 4.6875L21.125 12.5417L26.6458 4.47917C28.7396 1.49479 31.2344 0 34.125 0C35.2188 0 36.2604 0.208333 37.25 0.625C38.25 1.04167 39.125 1.625 39.875 2.375C40.625 3.125 41.2188 4 41.6667 5C42.1094 5.98958 42.3333 7.03125 42.3333 8.125C42.3333 9.875 41.8333 11.474 40.8333 12.9167L29.2708 29.4792V40.3125C29.2708 42.0521 29.1562 43.3958 28.9375 44.3542C28.7135 45.3021 28.3229 46.1875 27.7708 47.0208C27.0208 48.1198 26.0469 48.9792 24.8542 49.6042C23.6562 50.2292 22.3646 50.5417 20.9792 50.5417C19.5312 50.5417 18.1719 50.1927 16.8958 49.5C15.6302 48.8073 14.651 47.8333 13.9583 46.5833C13.5104 45.7396 13.1979 44.8854 13.0208 44.0208C12.8542 43.1458 12.7708 41.9115 12.7708 40.3125V29.25ZM29.3333 10.2292C29.6354 9.82813 29.8385 9.51563 29.9375 9.29167C30.0312 9.07292 30.0833 8.85417 30.0833 8.64583C30.0833 8.26042 29.9688 7.9375 29.75 7.6875C29.526 7.4375 29.2135 7.3125 28.8125 7.3125C28.5208 7.3125 28.2708 7.40625 28.0625 7.58333C27.8646 7.75 27.5729 8.13542 27.1875 8.72917L23.2917 14.25C22.7917 15.0417 22.5417 15.5625 22.5417 15.8125C22.5417 16.1615 22.6667 16.4583 22.9167 16.7083C23.1667 16.9583 23.4896 17.0833 23.8958 17.0833C24.2812 17.0833 24.8333 16.6406 25.5417 15.75L29.3333 10.2292ZM5.52083 3.875C5.11458 3.875 4.77604 4.03125 4.5 4.33333C4.23438 4.625 4.10417 4.99479 4.10417 5.4375C4.10417 5.84375 4.23438 6.19792 4.5 6.5C4.77604 6.79167 5.11458 6.9375 5.52083 6.9375C5.92188 6.9375 6.27083 6.79167 6.5625 6.5C6.86458 6.19792 7.02083 5.84375 7.02083 5.4375C7.02083 4.99479 6.86458 4.625 6.5625 4.33333C6.27083 4.03125 5.92188 3.875 5.52083 3.875ZM29.7917 5.4375C29.7917 5.84375 29.9375 6.19792 30.2292 6.5C30.5312 6.79167 30.8854 6.9375 31.2917 6.9375C31.7344 6.9375 32.0885 6.79167 32.3542 6.5C32.6302 6.19792 32.7708 5.84375 32.7708 5.4375C32.7708 4.99479 32.6302 4.625 32.3542 4.33333C32.0885 4.03125 31.7344 3.875 31.2917 3.875C30.8854 3.875 30.5312 4.03125 30.2292 4.33333C29.9375 4.625 29.7917 4.99479 29.7917 5.4375ZM18.2083 30.6042V29.625C18.2083 28.7396 18.1094 27.9948 17.9167 27.3958C17.7188 26.8021 17.2969 26.0521 16.6458 25.1458L6.41667 10.5208C6.06771 10.0208 5.83333 9.67708 5.70833 9.47917C5.58333 9.27083 5.46875 9.04167 5.375 8.79167C5.17708 8.40625 4.98958 8.13542 4.8125 7.97917C4.64583 7.82813 4.4375 7.75 4.1875 7.75C3.33854 7.75 2.91667 8.17708 2.91667 9.02083C2.91667 9.42708 3.0625 9.89063 3.35417 10.4167C3.65625 10.9323 4.15625 11.7083 4.85417 12.75L14.4167 26.5625L14.9375 27.3958C15.2292 27.8438 15.3958 28.1875 15.4375 28.4375C15.4896 28.6875 15.5469 29.1875 15.6042 29.9375V41.5C15.6042 43.5 16.026 45.0365 16.875 46.1042C17.7188 47.1771 18.9427 47.7083 20.5417 47.7083C21.6771 47.7083 22.25 47.2396 22.25 46.2917C22.25 45.6406 21.9219 45.2656 21.2708 45.1667L20.6875 45.0833C19.6875 44.9479 19.0208 44.5521 18.6875 43.8958C18.3646 43.2448 18.2083 42.0729 18.2083 40.375V30.6042Z" fill="#D9D9D9"/>
<path d="M61.5976 43.75C60.5403 46.1406 59.3528 47.8698 58.0351 48.9375C56.7278 50.0104 55.0768 50.5417 53.0768 50.5417C51.9362 50.5417 50.8684 50.3333 49.8684 49.9167C48.8684 49.4896 48.0039 48.8958 47.2851 48.1458C46.5612 47.3958 45.9934 46.5313 45.5768 45.5417C45.1601 44.5417 44.9518 43.474 44.9518 42.3333C44.9518 40.9323 45.2955 39.4896 45.9934 38L61.3685 5.375C63.0612 1.79167 65.6497 0 69.1393 0C72.6653 0 75.306 1.84375 77.056 5.52083L92.5143 38.4375C93.1497 39.6875 93.4726 41.0104 93.4726 42.3958C93.4726 43.5521 93.2487 44.6146 92.806 45.5833C92.358 46.5417 91.7643 47.3958 91.0143 48.1458C90.2643 48.8958 89.3893 49.4896 88.3893 49.9167C87.3997 50.3333 86.332 50.5417 85.181 50.5417C83.2903 50.5417 81.707 50.0521 80.431 49.0625C79.1653 48.0625 77.9622 46.2917 76.8268 43.75H61.5976ZM71.8268 32.0208L69.2851 25.8333L66.4518 32.0208H71.8268ZM51.5768 38.8125L64.7226 10.5208C64.9726 10.0781 65.1185 9.74479 65.1601 9.52083C65.2122 9.28646 65.2435 9.09896 65.2435 8.95833C65.2435 8.65625 65.1289 8.39063 64.9101 8.16667C64.6862 7.94792 64.3737 7.83333 63.9726 7.83333C63.681 7.83333 63.4205 7.9375 63.2018 8.14583C62.9778 8.34375 62.7435 8.73958 62.4935 9.33333L49.5768 36.9583C48.8789 38.5417 48.4101 39.6875 48.1601 40.3958C47.9101 41.0938 47.7851 41.7396 47.7851 42.3333C47.7851 42.974 47.9153 43.6198 48.1809 44.2708C48.457 44.9115 48.8059 45.4792 49.2226 45.9792C49.6497 46.4792 50.1393 46.8854 50.6809 47.1875C51.233 47.4792 51.7851 47.625 52.3268 47.625C53.3268 47.625 53.8268 47.1563 53.8268 46.2083C53.8268 45.6146 53.4309 45.1875 52.6393 44.9375C51.9309 44.7448 51.3737 44.4115 50.9726 43.9375C50.582 43.4688 50.3893 42.8854 50.3893 42.1875C50.3893 41.6354 50.6653 40.7292 51.2226 39.4792L51.5768 38.8125ZM76.9726 30.8333L73.1601 22.0208C72.8685 21.3281 72.6289 20.8698 72.4518 20.6458C72.2851 20.4115 72.0247 20.2917 71.681 20.2917C71.3164 20.2917 71.0143 20.4167 70.7643 20.6667C70.5247 20.9167 70.4101 21.2188 70.4101 21.5625C70.4101 21.7188 70.4414 21.9323 70.5143 22.2083C70.582 22.4896 70.6914 22.7448 70.8476 22.9792L74.7435 31.7917C75.0351 32.5 75.2747 32.9531 75.4726 33.1458C75.681 33.3438 75.957 33.4375 76.306 33.4375C77.0976 33.4375 77.4935 33.0625 77.4935 32.3125C77.4935 32.0208 77.4153 31.724 77.2643 31.4167L76.9726 30.8333ZM73.9101 40.9167H75.0351C75.8268 40.9167 76.457 40.9479 76.931 41C77.3997 41.0417 77.7851 41.1406 78.0768 41.2917C78.3789 41.4323 78.6445 41.6563 78.8685 41.9583C79.1028 42.25 79.3372 42.6458 79.5768 43.1458C80.1705 44.3021 80.608 45.0781 80.8893 45.4792C81.1653 45.8698 81.4778 46.2396 81.8268 46.5833C82.6185 47.3333 83.5612 47.7083 84.6601 47.7083C85.7018 47.7083 86.2226 47.2396 86.2226 46.2917C86.2226 45.5833 85.806 45.1615 84.9726 45.0208C84.2643 44.9271 83.7695 44.7656 83.4935 44.5417C83.2278 44.3073 82.8945 43.8229 82.4935 43.0833C81.9518 42.0312 81.4778 41.1979 81.0768 40.5833C80.6705 39.9583 80.2226 39.4896 79.7226 39.1667C79.233 38.8333 78.6393 38.6198 77.931 38.5208C77.233 38.4271 76.3685 38.375 75.3268 38.375H62.6393C61.6914 38.375 61.0664 38.4688 60.7643 38.6458C60.4726 38.8125 60.3268 39.1667 60.3268 39.7083C60.3268 40.5156 60.7955 40.9167 61.7435 40.9167H73.9101ZM65.9935 4.16667C65.6028 4.16667 65.2539 4.32292 64.9518 4.625C64.6601 4.91667 64.5143 5.26563 64.5143 5.66667C64.5143 6.07292 64.6601 6.42708 64.9518 6.72917C65.2539 7.02083 65.6028 7.16667 65.9935 7.16667C66.3945 7.16667 66.7435 7.02083 67.0351 6.72917C67.3372 6.42708 67.4935 6.07292 67.4935 5.66667C67.4935 5.26563 67.3372 4.91667 67.0351 4.625C66.7435 4.32292 66.3945 4.16667 65.9935 4.16667Z" fill="#D9D9D9"/>
<path d="M115.124 35.4584V40.3125C115.124 42.0521 115.01 43.3959 114.791 44.3542C114.567 45.3021 114.176 46.1875 113.624 47.0209C112.874 48.1198 111.9 48.9792 110.708 49.6042C109.51 50.2292 108.249 50.5417 106.916 50.5417C105.416 50.5417 104.025 50.1927 102.749 49.5C101.484 48.8073 100.504 47.8334 99.8118 46.5834C99.3639 45.7396 99.067 44.8854 98.9159 44.0209C98.7597 43.1459 98.6868 41.9115 98.6868 40.3125V9.85419C98.6868 8.06252 98.8847 6.59898 99.2909 5.45835C99.692 4.30731 100.385 3.32815 101.374 2.52085C102.317 1.72919 103.353 1.1771 104.478 0.854187C105.603 0.520854 107.109 0.354187 108.999 0.354187H115.728C117.754 0.354187 119.317 0.416687 120.416 0.541687C121.51 0.666687 122.609 0.854187 123.708 1.10419C125.65 1.66148 127.416 2.4896 128.999 3.58335C130.593 4.66669 131.963 5.97398 133.103 7.50002C134.254 9.01565 135.15 10.6979 135.791 12.5417C136.442 14.375 136.77 16.2917 136.77 18.2917C136.77 20.724 136.343 22.9375 135.499 24.9375C134.65 26.9271 133.281 28.9584 131.395 31.0417L135.353 37.1667C135.853 37.974 136.234 38.8334 136.499 39.75C136.775 40.6667 136.916 41.599 136.916 42.5417C136.916 43.6979 136.697 44.7604 136.27 45.7292C135.853 46.7031 135.27 47.5365 134.52 48.2292C133.781 48.9271 132.916 49.4896 131.916 49.9167C130.926 50.3334 129.859 50.5417 128.708 50.5417C127.166 50.5417 125.781 50.1667 124.562 49.4167C123.338 48.6667 122.301 47.625 121.458 46.2917L115.124 35.4584ZM116.541 21.125C117.426 21.125 117.999 21.099 118.249 21.0417C119.843 20.7917 120.645 19.9479 120.645 18.5C120.645 16.7084 119.275 15.8125 116.541 15.8125H115.124V21.125H116.541ZM116.395 10.5834C115.546 10.5834 114.958 10.6615 114.624 10.8125C114.301 10.9688 114.145 11.3125 114.145 11.8542C114.145 12.4115 114.291 12.7813 114.583 12.9584C114.885 13.125 115.489 13.2084 116.395 13.2084H117.145C118.088 13.2084 118.843 13.2604 119.416 13.3542C119.984 13.4531 120.489 13.625 120.937 13.875C122.629 14.875 123.478 16.349 123.478 18.2917L123.562 19.1875C123.562 20.2709 124.004 20.8125 124.895 20.8125C125.697 20.8125 126.103 20.1198 126.103 18.7292C126.103 16.1875 125.317 14.1979 123.749 12.75C122.176 11.3073 119.978 10.5834 117.145 10.5834H116.395ZM122.958 43.0834L123.478 43.9792C124.379 45.4115 125.197 46.4063 125.937 46.9584C126.687 47.5 127.588 47.7709 128.645 47.7709C129.781 47.7709 130.353 47.3021 130.353 46.3542C130.353 45.6615 129.958 45.2396 129.166 45.0834L128.27 44.9375C127.671 44.7865 127.135 44.4688 126.666 43.9792C126.192 43.4792 125.531 42.5313 124.687 41.125L118.187 29.9375C117.629 29.0365 117.083 28.5834 116.541 28.5834C115.749 28.5834 115.353 28.9896 115.353 29.7917C115.353 30.1823 115.421 30.4792 115.562 30.6875L115.937 31.3542L122.958 43.0834ZM103.999 4.02085C103.593 4.02085 103.239 4.1771 102.937 4.47919C102.645 4.77085 102.499 5.11981 102.499 5.52085C102.499 5.91148 102.645 6.26044 102.937 6.56252C103.239 6.85419 103.593 7.00002 103.999 7.00002C104.4 7.00002 104.749 6.85419 105.041 6.56252C105.343 6.26044 105.499 5.91148 105.499 5.52085C105.499 5.11981 105.343 4.77085 105.041 4.47919C104.749 4.1771 104.4 4.02085 103.999 4.02085ZM101.541 40.4584C101.541 41.9063 101.588 42.974 101.687 43.6667C101.781 44.3646 102.004 44.9896 102.353 45.5417C102.796 46.2396 103.379 46.7709 104.103 47.1459C104.822 47.5209 105.588 47.7084 106.395 47.7084C107.531 47.7084 108.103 47.2396 108.103 46.2917C108.103 45.6406 107.801 45.2656 107.208 45.1667L106.541 45.0834C105.541 44.8906 104.874 44.474 104.541 43.8334C104.218 43.1823 104.062 41.9115 104.062 40.0209V10.2292C104.062 9.27085 103.984 8.64585 103.833 8.35419C103.692 8.0521 103.343 7.89585 102.791 7.89585C102.249 7.89585 101.9 8.0521 101.749 8.35419C101.609 8.64585 101.541 9.27085 101.541 10.2292V40.4584Z" fill="#D9D9D9"/>
<path d="M154.467 50.1667C153.175 50.1667 152.055 50.1198 151.112 50.0209C150.165 49.9271 149.342 49.7396 148.633 49.4584C147.935 49.1823 147.31 48.8334 146.758 48.4167C146.217 47.9896 145.722 47.4531 145.279 46.8125C144.987 46.4115 144.737 46 144.529 45.5834C144.331 45.1563 144.175 44.6563 144.05 44.0834C143.925 43.5156 143.847 42.8229 143.821 42C143.79 41.1667 143.779 40.1563 143.779 38.9584V11.5625C143.779 10.2709 143.805 9.20315 143.862 8.35419C143.915 7.51044 143.998 6.78648 144.112 6.18752C144.237 5.59377 144.409 5.08335 144.633 4.66669C144.868 4.2396 145.18 3.8021 145.571 3.35419C147.222 1.35419 149.763 0.354187 153.196 0.354187H163.279C167.013 0.354187 170.347 0.869812 173.279 1.89585C176.222 2.91148 178.909 4.51565 181.342 6.70835C183.977 9.05731 186.008 11.8334 187.425 15.0417C188.842 18.25 189.55 21.6459 189.55 25.2292C189.55 28.6615 188.852 31.974 187.467 35.1667C186.076 38.349 184.112 41.1354 181.571 43.5209C179.972 45.0209 178.165 46.2917 176.154 47.3334C174.138 48.375 172.034 49.1198 169.842 49.5625C167.701 49.9688 164.888 50.1667 161.404 50.1667H154.467ZM160.217 34.8542C161.602 34.8542 162.769 34.8334 163.717 34.7917C164.659 34.7396 165.456 34.6459 166.112 34.5209C166.763 34.3959 167.31 34.2396 167.758 34.0417C168.201 33.849 168.675 33.5729 169.175 33.2084C170.425 32.3229 171.404 31.1667 172.112 29.75C172.831 28.3334 173.196 26.8542 173.196 25.3125C173.196 23.4688 172.706 21.7709 171.737 20.2292C170.779 18.6875 169.498 17.5156 167.904 16.7084C167.112 16.3229 166.237 16.0521 165.279 15.8959C164.331 15.7448 163.092 15.6667 161.55 15.6667H160.217V34.8542ZM149.092 7.08335C149.493 7.08335 149.842 6.93752 150.133 6.64585C150.435 6.34377 150.592 5.9896 150.592 5.58335C150.592 5.19794 150.435 4.85419 150.133 4.56252C149.842 4.26044 149.493 4.10419 149.092 4.10419C148.685 4.10419 148.331 4.26044 148.029 4.56252C147.737 4.85419 147.592 5.19794 147.592 5.58335C147.592 5.9896 147.737 6.34377 148.029 6.64585C148.331 6.93752 148.685 7.08335 149.092 7.08335ZM149.154 40.375V10.2292C149.154 9.27085 149.076 8.64585 148.925 8.35419C148.784 8.0521 148.435 7.89585 147.883 7.89585C147.342 7.89585 146.993 8.06252 146.842 8.39585C146.701 8.71877 146.633 9.32815 146.633 10.2292V40.3125C146.633 42.2031 146.727 43.474 146.925 44.125C147.118 44.7656 147.54 45.0834 148.196 45.0834C149.04 45.0834 149.467 44.6875 149.467 43.8959C149.467 43.6459 149.435 43.4271 149.383 43.2292C149.284 42.8854 149.222 42.5834 149.196 42.3334C149.165 42.0834 149.154 41.6823 149.154 41.125V40.375ZM175.3 29.625C175.201 29.875 175.154 30.1563 175.154 30.4584C175.154 31.1563 175.519 31.5 176.258 31.5C176.967 31.5 177.54 30.9323 177.987 29.7917C178.43 28.6406 178.654 27.1198 178.654 25.2292C178.654 22.6459 178.029 20.25 176.779 18.0417C175.54 15.8229 173.779 13.9896 171.487 12.5417C170.29 11.7396 169.034 11.1615 167.717 10.8125C166.394 10.4688 164.81 10.2917 162.967 10.2917H160.592C159.493 10.349 158.946 10.7709 158.946 11.5625C158.946 12.4688 159.493 12.9167 160.592 12.9167H162.967C164.81 12.9167 166.352 13.1198 167.592 13.5209C168.842 13.9115 170.092 14.6042 171.342 15.6042C172.784 16.6875 173.935 18.1042 174.8 19.8542C175.675 21.5938 176.112 23.3854 176.112 25.2292C176.112 26.4792 175.967 27.5781 175.675 28.5209L175.3 29.625ZM162.967 47.3959H164.175C166.967 47.3959 169.404 47.0313 171.487 46.2917C172.487 45.9479 173.165 45.625 173.529 45.3334C173.904 45.0313 174.092 44.6771 174.092 44.2709C174.092 43.9271 173.977 43.625 173.758 43.375C173.534 43.125 173.248 43 172.904 43C172.805 43 172.665 43.0313 172.487 43.0834C172.321 43.125 172.034 43.2448 171.633 43.4375C170.935 43.7448 170.29 43.9896 169.696 44.1667C169.097 44.3334 168.472 44.4688 167.821 44.5625C167.18 44.6615 166.472 44.724 165.696 44.75C164.93 44.7813 164.019 44.7917 162.967 44.7917H158.196C157.196 44.7917 156.534 44.8854 156.217 45.0625C155.894 45.2292 155.737 45.5625 155.737 46.0625C155.737 46.6042 155.925 46.9688 156.3 47.1459C156.675 47.3125 157.352 47.3959 158.342 47.3959H162.967Z" fill="#D9D9D9"/>
<path d="M210.089 43.75C209.032 46.1406 207.844 47.8698 206.526 48.9375C205.219 50.0104 203.568 50.5417 201.568 50.5417C200.427 50.5417 199.36 50.3333 198.36 49.9167C197.36 49.4896 196.495 48.8958 195.776 48.1458C195.052 47.3958 194.485 46.5313 194.068 45.5417C193.651 44.5417 193.443 43.474 193.443 42.3333C193.443 40.9323 193.787 39.4896 194.485 38L209.86 5.375C211.552 1.79167 214.141 0 217.631 0C221.157 0 223.797 1.84375 225.547 5.52083L241.006 38.4375C241.641 39.6875 241.964 41.0104 241.964 42.3958C241.964 43.5521 241.74 44.6146 241.297 45.5833C240.849 46.5417 240.256 47.3958 239.506 48.1458C238.756 48.8958 237.881 49.4896 236.881 49.9167C235.891 50.3333 234.823 50.5417 233.672 50.5417C231.782 50.5417 230.198 50.0521 228.922 49.0625C227.657 48.0625 226.453 46.2917 225.318 43.75H210.089ZM220.318 32.0208L217.776 25.8333L214.943 32.0208H220.318ZM200.068 38.8125L213.214 10.5208C213.464 10.0781 213.61 9.74479 213.651 9.52083C213.703 9.28646 213.735 9.09896 213.735 8.95833C213.735 8.65625 213.62 8.39063 213.401 8.16667C213.177 7.94792 212.865 7.83333 212.464 7.83333C212.172 7.83333 211.912 7.9375 211.693 8.14583C211.469 8.34375 211.235 8.73958 210.985 9.33333L198.068 36.9583C197.37 38.5417 196.901 39.6875 196.651 40.3958C196.401 41.0938 196.276 41.7396 196.276 42.3333C196.276 42.974 196.407 43.6198 196.672 44.2708C196.948 44.9115 197.297 45.4792 197.714 45.9792C198.141 46.4792 198.631 46.8854 199.172 47.1875C199.724 47.4792 200.276 47.625 200.818 47.625C201.818 47.625 202.318 47.1563 202.318 46.2083C202.318 45.6146 201.922 45.1875 201.131 44.9375C200.422 44.7448 199.865 44.4115 199.464 43.9375C199.073 43.4688 198.881 42.8854 198.881 42.1875C198.881 41.6354 199.157 40.7292 199.714 39.4792L200.068 38.8125ZM225.464 30.8333L221.651 22.0208C221.36 21.3281 221.12 20.8698 220.943 20.6458C220.776 20.4115 220.516 20.2917 220.172 20.2917C219.808 20.2917 219.506 20.4167 219.256 20.6667C219.016 20.9167 218.901 21.2188 218.901 21.5625C218.901 21.7188 218.933 21.9323 219.006 22.2083C219.073 22.4896 219.183 22.7448 219.339 22.9792L223.235 31.7917C223.526 32.5 223.766 32.9531 223.964 33.1458C224.172 33.3438 224.448 33.4375 224.797 33.4375C225.589 33.4375 225.985 33.0625 225.985 32.3125C225.985 32.0208 225.907 31.724 225.756 31.4167L225.464 30.8333ZM222.401 40.9167H223.526C224.318 40.9167 224.948 40.9479 225.422 41C225.891 41.0417 226.276 41.1406 226.568 41.2917C226.87 41.4323 227.136 41.6563 227.36 41.9583C227.594 42.25 227.828 42.6458 228.068 43.1458C228.662 44.3021 229.099 45.0781 229.381 45.4792C229.657 45.8698 229.969 46.2396 230.318 46.5833C231.11 47.3333 232.052 47.7083 233.151 47.7083C234.193 47.7083 234.714 47.2396 234.714 46.2917C234.714 45.5833 234.297 45.1615 233.464 45.0208C232.756 44.9271 232.261 44.7656 231.985 44.5417C231.719 44.3073 231.386 43.8229 230.985 43.0833C230.443 42.0312 229.969 41.1979 229.568 40.5833C229.162 39.9583 228.714 39.4896 228.214 39.1667C227.724 38.8333 227.131 38.6198 226.422 38.5208C225.724 38.4271 224.86 38.375 223.818 38.375H211.131C210.183 38.375 209.558 38.4688 209.256 38.6458C208.964 38.8125 208.818 39.1667 208.818 39.7083C208.818 40.5156 209.287 40.9167 210.235 40.9167H222.401ZM214.485 4.16667C214.094 4.16667 213.745 4.32292 213.443 4.625C213.151 4.91667 213.006 5.26563 213.006 5.66667C213.006 6.07292 213.151 6.42708 213.443 6.72917C213.745 7.02083 214.094 7.16667 214.485 7.16667C214.886 7.16667 215.235 7.02083 215.526 6.72917C215.828 6.42708 215.985 6.07292 215.985 5.66667C215.985 5.26563 215.828 4.91667 215.526 4.625C215.235 4.32292 214.886 4.16667 214.485 4.16667Z" fill="#D9D9D9"/>
<path d="M259.265 50.1667C257.166 50.1667 255.478 49.8698 254.202 49.2708C252.937 48.6771 251.879 47.7031 251.036 46.3542C250.744 45.8542 250.52 45.3854 250.369 44.9375C250.213 44.4948 250.088 43.9531 249.994 43.3125C249.895 42.6615 249.833 41.849 249.807 40.875C249.775 39.9062 249.765 38.6198 249.765 37.0208V10.2292C249.765 8.47917 249.859 7.13542 250.057 6.1875C250.265 5.24479 250.666 4.34896 251.265 3.5C251.958 2.40625 252.9 1.55208 254.098 0.9375C255.291 0.3125 256.588 0 257.994 0C259.437 0 260.791 0.364584 262.057 1.08333C263.317 1.79167 264.307 2.77083 265.015 4.02083C265.458 4.8125 265.765 5.64583 265.932 6.52083C266.109 7.39583 266.202 8.63542 266.202 10.2292V34.7917H274.119C275.562 34.7917 276.728 34.9062 277.619 35.125C278.52 35.349 279.338 35.7292 280.077 36.2708C281.077 36.9792 281.848 37.8854 282.39 38.9792C282.942 40.0625 283.223 41.2031 283.223 42.3958C283.223 43.4948 282.994 44.5781 282.536 45.6458C282.088 46.7188 281.473 47.599 280.682 48.2917C279.932 49 279.098 49.4948 278.182 49.7708C277.265 50.0365 276.083 50.1667 274.64 50.1667H259.265ZM274.265 47.3333C275.307 47.3333 276.083 47.2865 276.598 47.1875C277.124 47.0781 277.588 46.9063 277.994 46.6667C278.838 46.1146 279.265 45.5156 279.265 44.875C279.265 44.5156 279.15 44.2188 278.932 43.9792C278.708 43.7292 278.421 43.6042 278.077 43.6042C277.827 43.6042 277.421 43.7813 276.869 44.125C276.421 44.4167 276.015 44.6042 275.64 44.6875C275.265 44.7604 274.603 44.7917 273.661 44.7917H263.807L262.994 44.7083C261.994 44.8229 261.494 45.2448 261.494 45.9792C261.494 46.5365 261.64 46.9063 261.932 47.0833C262.234 47.25 262.859 47.3333 263.807 47.3333H274.265ZM255.077 4.02083C254.629 4.02083 254.27 4.1875 253.994 4.52083C253.713 4.84375 253.577 5.19792 253.577 5.58333C253.577 5.98958 253.723 6.34375 254.015 6.64583C254.317 6.9375 254.671 7.08333 255.077 7.08333C255.478 7.08333 255.827 6.9375 256.119 6.64583C256.421 6.34375 256.577 5.98958 256.577 5.58333C256.577 5.19792 256.421 4.84375 256.119 4.52083C255.827 4.1875 255.478 4.02083 255.077 4.02083ZM255.14 40.375V10.2292C255.14 9.27083 255.062 8.64583 254.911 8.35417C254.77 8.05208 254.421 7.89583 253.869 7.89583C253.327 7.89583 252.963 8.0625 252.786 8.39583C252.619 8.71875 252.536 9.32813 252.536 10.2292V40.3125C252.536 42.2031 252.629 43.474 252.827 44.125C253.036 44.7656 253.484 45.0833 254.182 45.0833C255.025 45.0833 255.452 44.6875 255.452 43.8958C255.452 43.8021 255.437 43.7031 255.411 43.6042C255.379 43.4948 255.369 43.3698 255.369 43.2292C255.27 42.8854 255.208 42.5833 255.182 42.3333C255.15 42.0833 255.14 41.6823 255.14 41.125V40.375Z" fill="#00BF63"/>
<path d="M302.637 43.75C301.579 46.1406 300.392 47.8698 299.074 48.9375C297.767 50.0104 296.116 50.5417 294.116 50.5417C292.975 50.5417 291.907 50.3333 290.907 49.9167C289.907 49.4896 289.043 48.8958 288.324 48.1458C287.6 47.3958 287.032 46.5313 286.616 45.5417C286.199 44.5417 285.991 43.474 285.991 42.3333C285.991 40.9323 286.334 39.4896 287.032 38L302.407 5.375C304.1 1.79167 306.689 0 310.178 0C313.704 0 316.345 1.84375 318.095 5.52083L333.553 38.4375C334.189 39.6875 334.512 41.0104 334.512 42.3958C334.512 43.5521 334.288 44.6146 333.845 45.5833C333.397 46.5417 332.803 47.3958 332.053 48.1458C331.303 48.8958 330.428 49.4896 329.428 49.9167C328.439 50.3333 327.371 50.5417 326.22 50.5417C324.329 50.5417 322.746 50.0521 321.47 49.0625C320.204 48.0625 319.001 46.2917 317.866 43.75H302.637ZM312.866 32.0208L310.324 25.8333L307.491 32.0208H312.866ZM292.616 38.8125L305.762 10.5208C306.012 10.0781 306.157 9.74479 306.199 9.52083C306.251 9.28646 306.282 9.09896 306.282 8.95833C306.282 8.65625 306.168 8.39063 305.949 8.16667C305.725 7.94792 305.413 7.83333 305.012 7.83333C304.72 7.83333 304.459 7.9375 304.241 8.14583C304.017 8.34375 303.782 8.73958 303.532 9.33333L290.616 36.9583C289.918 38.5417 289.449 39.6875 289.199 40.3958C288.949 41.0938 288.824 41.7396 288.824 42.3333C288.824 42.974 288.954 43.6198 289.22 44.2708C289.496 44.9115 289.845 45.4792 290.262 45.9792C290.689 46.4792 291.178 46.8854 291.72 47.1875C292.272 47.4792 292.824 47.625 293.366 47.625C294.366 47.625 294.866 47.1563 294.866 46.2083C294.866 45.6146 294.47 45.1875 293.678 44.9375C292.97 44.7448 292.413 44.4115 292.012 43.9375C291.621 43.4688 291.428 42.8854 291.428 42.1875C291.428 41.6354 291.704 40.7292 292.262 39.4792L292.616 38.8125ZM318.012 30.8333L314.199 22.0208C313.907 21.3281 313.668 20.8698 313.491 20.6458C313.324 20.4115 313.064 20.2917 312.72 20.2917C312.355 20.2917 312.053 20.4167 311.803 20.6667C311.564 20.9167 311.449 21.2188 311.449 21.5625C311.449 21.7188 311.48 21.9323 311.553 22.2083C311.621 22.4896 311.73 22.7448 311.887 22.9792L315.782 31.7917C316.074 32.5 316.314 32.9531 316.512 33.1458C316.72 33.3438 316.996 33.4375 317.345 33.4375C318.137 33.4375 318.532 33.0625 318.532 32.3125C318.532 32.0208 318.454 31.724 318.303 31.4167L318.012 30.8333ZM314.949 40.9167H316.074C316.866 40.9167 317.496 40.9479 317.97 41C318.439 41.0417 318.824 41.1406 319.116 41.2917C319.418 41.4323 319.683 41.6563 319.907 41.9583C320.142 42.25 320.376 42.6458 320.616 43.1458C321.209 44.3021 321.647 45.0781 321.928 45.4792C322.204 45.8698 322.517 46.2396 322.866 46.5833C323.657 47.3333 324.6 47.7083 325.699 47.7083C326.741 47.7083 327.262 47.2396 327.262 46.2917C327.262 45.5833 326.845 45.1615 326.012 45.0208C325.303 44.9271 324.808 44.7656 324.532 44.5417C324.267 44.3073 323.933 43.8229 323.532 43.0833C322.991 42.0312 322.517 41.1979 322.116 40.5833C321.709 39.9583 321.262 39.4896 320.762 39.1667C320.272 38.8333 319.678 38.6198 318.97 38.5208C318.272 38.4271 317.407 38.375 316.366 38.375H303.678C302.73 38.375 302.105 38.4688 301.803 38.6458C301.512 38.8125 301.366 39.1667 301.366 39.7083C301.366 40.5156 301.834 40.9167 302.782 40.9167H314.949ZM307.032 4.16667C306.642 4.16667 306.293 4.32292 305.991 4.625C305.699 4.91667 305.553 5.26563 305.553 5.66667C305.553 6.07292 305.699 6.42708 305.991 6.72917C306.293 7.02083 306.642 7.16667 307.032 7.16667C307.433 7.16667 307.782 7.02083 308.074 6.72917C308.376 6.42708 308.532 6.07292 308.532 5.66667C308.532 5.26563 308.376 4.91667 308.074 4.625C307.782 4.32292 307.433 4.16667 307.032 4.16667Z" fill="#00BF63"/>
<path d="M349.142 50.1667C347.101 50.1667 345.502 49.9323 344.351 49.4584C343.21 48.9896 342.194 48.1771 341.309 47.0209C340.96 46.5781 340.684 46.1615 340.476 45.7709C340.278 45.3698 340.122 44.8959 339.997 44.3542C339.872 43.8021 339.793 43.1406 339.767 42.375C339.736 41.599 339.726 40.6146 339.726 39.4167V11.1875C339.726 9.99481 339.752 9.00002 339.809 8.20835C339.861 7.40627 339.96 6.71877 340.101 6.14585C340.252 5.57815 340.455 5.08335 340.705 4.66669C340.955 4.2396 341.278 3.77085 341.684 3.27085C343.267 1.32815 345.627 0.354187 348.767 0.354187H355.184C356.528 0.354187 357.663 0.369812 358.58 0.395854C359.507 0.427103 360.309 0.46877 360.976 0.520854C361.642 0.56252 362.236 0.62502 362.767 0.708354C363.293 0.781271 363.83 0.864604 364.372 0.958354C366.064 1.3646 367.606 2.02085 368.997 2.93752C370.398 3.85419 371.606 4.97398 372.622 6.29169C373.648 7.6146 374.434 9.08335 374.976 10.7084C375.517 12.3229 375.788 14.0209 375.788 15.8125C375.788 17.2604 375.627 18.5313 375.309 19.625C374.986 20.724 374.377 22.0209 373.476 23.5209C375.226 24.9531 376.585 26.7188 377.559 28.8125C378.528 30.9115 379.017 33.0781 379.017 35.3125C379.017 39.7448 377.34 43.474 373.997 46.5C373.148 47.25 372.361 47.8646 371.642 48.3334C370.934 48.8073 370.127 49.1823 369.226 49.4584C368.335 49.7396 367.314 49.9271 366.163 50.0209C365.023 50.1198 363.653 50.1667 362.059 50.1667H349.142ZM358.017 19.625C358.517 19.625 358.877 19.6198 359.101 19.6042C359.335 19.5781 359.549 19.5365 359.747 19.4792C360.148 19.3854 360.481 19.1771 360.747 18.8542C361.023 18.5209 361.163 18.1354 361.163 17.6875C361.163 16.9948 360.913 16.5 360.413 16.2084C359.913 15.9063 359.09 15.75 357.955 15.75H356.163V19.625H358.017ZM358.851 34.8542C359.543 34.8542 360.023 34.8542 360.288 34.8542C360.564 34.8542 360.809 34.8073 361.017 34.7084C362.002 34.5573 362.497 33.9375 362.497 32.8542C362.497 32.0521 362.226 31.5 361.684 31.2084C361.142 30.9063 360.194 30.75 358.851 30.75H356.163V34.8542H358.851ZM357.497 10.2917C356.507 10.2917 355.851 10.3698 355.517 10.5209C355.194 10.6771 355.038 11.0209 355.038 11.5625C355.038 12.1042 355.194 12.4688 355.517 12.6459C355.851 12.8281 356.507 12.9167 357.497 12.9167H358.017C362.059 12.9167 364.08 14.5365 364.08 17.7709L363.997 18.5834C363.997 18.9896 364.106 19.3125 364.33 19.5625C364.549 19.8021 364.861 19.9167 365.267 19.9167C366.267 19.9167 366.767 19.0781 366.767 17.3959C366.767 16.3021 366.486 15.2448 365.934 14.2292C365.392 13.2031 364.622 12.3438 363.622 11.6459C362.924 11.1875 362.127 10.849 361.226 10.625C360.335 10.4063 359.247 10.2917 357.955 10.2917H357.497ZM360.038 27.9167C363.58 27.9167 365.398 29.4375 365.497 32.4792C365.538 33.5625 365.648 34.2709 365.83 34.6042C366.007 34.9271 366.372 35.0834 366.913 35.0834C367.799 35.0834 368.247 34.3125 368.247 32.7709C368.247 30.7292 367.601 29.0156 366.309 27.625C365.46 26.7813 364.517 26.1979 363.476 25.875C362.434 25.5417 360.861 25.375 358.767 25.375H357.497C356.549 25.375 355.903 25.4688 355.559 25.6459C355.21 25.8125 355.038 26.1459 355.038 26.6459C355.038 27.4948 355.559 27.9167 356.601 27.9167H360.038ZM369.976 44.875C369.976 44.0313 369.627 43.6042 368.934 43.6042C368.835 43.6042 368.684 43.6354 368.476 43.6875C368.278 43.7292 367.934 43.875 367.434 44.125C366.835 44.375 366.257 44.5365 365.705 44.6042C365.163 44.6771 364.34 44.7084 363.247 44.7084H353.913C353.023 44.7084 352.424 44.8021 352.122 44.9792C351.83 45.1459 351.684 45.5104 351.684 46.0625C351.684 46.9115 352.205 47.3334 353.247 47.3334H363.559C365.601 47.3334 367.174 47.1146 368.288 46.6667C369.413 46.2084 369.976 45.6146 369.976 44.875ZM345.101 4.10419C344.71 4.10419 344.361 4.26044 344.059 4.56252C343.767 4.85419 343.622 5.19794 343.622 5.58335C343.622 5.9896 343.767 6.34377 344.059 6.64585C344.361 6.93752 344.71 7.08335 345.101 7.08335C345.502 7.08335 345.851 6.93752 346.142 6.64585C346.444 6.34377 346.601 5.9896 346.601 5.58335C346.601 5.19794 346.444 4.85419 346.142 4.56252C345.851 4.26044 345.502 4.10419 345.101 4.10419ZM345.184 10.2292C345.184 9.27085 345.106 8.64585 344.955 8.35419C344.799 8.0521 344.455 7.89585 343.913 7.89585C343.372 7.89585 343.007 8.06252 342.83 8.39585C342.663 8.71877 342.58 9.32815 342.58 10.2292V40.3125C342.58 42.2031 342.689 43.474 342.913 44.125C343.132 44.7656 343.564 45.0834 344.205 45.0834C345.049 45.0834 345.476 44.6875 345.476 43.8959C345.476 43.5521 345.424 43.2188 345.33 42.8959C345.231 42.5625 345.184 41.974 345.184 41.125V10.2292Z" fill="#00BF63"/>
<path d="M385.714 42.3715C386.339 42.3715 386.922 42.4913 387.464 42.7257C388.006 42.9496 388.469 43.2674 388.86 43.684C389.261 44.0903 389.578 44.559 389.818 45.1007C390.068 45.6424 390.193 46.2153 390.193 46.809C390.193 47.434 390.068 48.0174 389.818 48.559C389.578 49.1007 389.261 49.5799 388.86 49.9965C388.469 50.4028 388.006 50.7205 387.464 50.9549C386.922 51.1736 386.339 51.2882 385.714 51.2882C385.115 51.2882 384.547 51.1736 384.006 50.9549C383.464 50.7205 382.985 50.4028 382.568 49.9965C382.162 49.5799 381.844 49.1007 381.61 48.559C381.386 48.0174 381.276 47.434 381.276 46.809C381.276 46.2153 381.386 45.6424 381.61 45.1007C381.844 44.559 382.162 44.0903 382.568 43.684C382.985 43.2674 383.464 42.9496 384.006 42.7257C384.547 42.4913 385.115 42.3715 385.714 42.3715ZM387.756 48.5174C387.756 48.3246 387.693 48.158 387.568 48.0174C387.443 47.8663 387.276 47.7882 387.068 47.7882C386.985 47.7882 386.844 47.8455 386.651 47.9549C386.328 48.1111 386.032 48.184 385.756 48.184C385.349 48.184 385.006 48.0486 384.714 47.7674C384.433 47.4757 384.297 47.1319 384.297 46.7257C384.297 46.5069 384.37 46.2465 384.526 45.9549C384.662 45.7049 384.735 45.5121 384.735 45.3715C384.735 45.1944 384.657 45.0486 384.506 44.934C384.365 44.8246 384.198 44.7674 384.006 44.7674C383.683 44.7674 383.412 44.9705 383.193 45.3715C382.969 45.7621 382.86 46.2153 382.86 46.7257C382.86 47.5486 383.141 48.2361 383.714 48.7882C384.282 49.3455 384.974 49.6215 385.797 49.6215C386.308 49.6215 386.745 49.5174 387.11 49.309C387.485 49.1007 387.698 48.8403 387.756 48.5174Z" fill="#D9D9D9"/>
<path d="M394.06 28.2465C394.06 27.2622 394.112 26.4965 394.227 25.9549C394.352 25.4132 394.581 24.9028 394.915 24.4132C395.316 23.7882 395.857 23.3038 396.54 22.9549C397.217 22.5955 397.961 22.4132 398.769 22.4132C399.586 22.4132 400.357 22.6215 401.081 23.0382C401.816 23.4445 402.378 23.9965 402.769 24.7049C403.029 25.1632 403.211 25.6424 403.31 26.1424C403.404 26.6424 403.456 27.3455 403.456 28.2465V45.4549C403.456 46.4445 403.394 47.2049 403.269 47.7465C403.144 48.2882 402.92 48.8038 402.602 49.2882C402.17 49.9445 401.612 50.4445 400.935 50.7882C400.253 51.1215 399.529 51.2882 398.769 51.2882C397.904 51.2882 397.112 51.0903 396.394 50.7049C395.67 50.3038 395.107 49.7465 394.706 49.0382C394.456 48.5538 394.279 48.059 394.185 47.559C394.102 47.059 394.06 46.3611 394.06 45.4549V28.2465ZM397.102 26.4132C397.321 26.4132 397.519 26.3299 397.685 26.1632C397.862 25.9965 397.956 25.7986 397.956 25.559C397.956 25.3403 397.862 25.1424 397.685 24.9757C397.519 24.7986 397.321 24.7049 397.102 24.7049C396.878 24.7049 396.675 24.7986 396.498 24.9757C396.331 25.1424 396.248 25.3403 396.248 25.559C396.248 25.7986 396.331 25.9965 396.498 26.1632C396.675 26.3299 396.878 26.4132 397.102 26.4132ZM398.56 48.184C397.987 48.0747 397.607 47.8299 397.415 47.4549C397.232 47.0799 397.144 46.3507 397.144 45.2674V28.2465C397.144 27.7049 397.102 27.3507 397.019 27.184C396.935 27.0174 396.732 26.934 396.415 26.934C396.107 26.934 395.904 27.0174 395.81 27.184C395.727 27.3507 395.685 27.7049 395.685 28.2465V45.5382C395.685 46.3611 395.711 46.9705 395.769 47.3715C395.836 47.7622 395.967 48.1163 396.165 48.434C396.415 48.8403 396.748 49.1424 397.165 49.3507C397.581 49.559 398.008 49.6632 398.456 49.6632C399.123 49.6632 399.456 49.4028 399.456 48.8715C399.456 48.4965 399.279 48.283 398.935 48.2257L398.56 48.184Z" fill="#D9D9D9"/>
<path d="M422.047 21.8507C424.13 21.8507 426.078 22.2465 427.901 23.0382C429.719 23.8195 431.302 24.8872 432.651 26.2465C434.01 27.6111 435.078 29.2049 435.859 31.0382C436.635 32.8611 437.026 34.8038 437.026 36.8715C437.026 38.9549 436.635 40.908 435.859 42.7257C435.078 44.5486 434.01 46.132 432.651 47.4757C431.302 48.8247 429.719 49.8924 427.901 50.684C426.078 51.4601 424.13 51.8507 422.047 51.8507C419.974 51.8507 418.031 51.4601 416.213 50.684C414.39 49.8924 412.797 48.8247 411.422 47.4757C410.057 46.132 408.989 44.5486 408.213 42.7257C407.432 40.908 407.047 38.9549 407.047 36.8715C407.047 34.8038 407.432 32.8611 408.213 31.0382C408.989 29.2049 410.057 27.6111 411.422 26.2465C412.797 24.8872 414.39 23.8195 416.213 23.0382C418.031 22.2465 419.974 21.8507 422.047 21.8507ZM422.047 31.2882C421.281 31.2882 420.557 31.434 419.88 31.7257C419.198 32.007 418.609 32.4028 418.109 32.9132C417.609 33.4132 417.203 34.0122 416.901 34.7049C416.609 35.3872 416.463 36.1111 416.463 36.8715C416.463 37.6372 416.599 38.3663 416.88 39.059C417.172 39.7413 417.573 40.3299 418.088 40.8299C418.599 41.3195 419.198 41.7153 419.88 42.0174C420.557 42.309 421.281 42.4549 422.047 42.4549C422.823 42.4549 423.552 42.309 424.234 42.0174C424.911 41.7153 425.505 41.3195 426.005 40.8299C426.505 40.3299 426.901 39.7413 427.192 39.059C427.495 38.3663 427.651 37.6372 427.651 36.8715C427.651 36.1111 427.495 35.3872 427.192 34.7049C426.901 34.0122 426.505 33.4132 426.005 32.9132C425.505 32.4028 424.911 32.007 424.234 31.7257C423.552 31.434 422.823 31.2882 422.047 31.2882ZM410.234 36.7882C410.234 35.7622 410.39 34.6997 410.713 33.6007C411.047 32.507 411.469 31.5486 411.984 30.7257C412.219 30.4236 412.359 30.2153 412.401 30.1007C412.442 29.9757 412.463 29.8455 412.463 29.7049C412.463 29.2465 412.245 29.0174 411.817 29.0174C411.495 29.0174 411.172 29.2778 410.838 29.7882C410.213 30.7361 409.713 31.8507 409.338 33.1424C408.974 34.434 408.797 35.7205 408.797 36.9965C408.797 38.8195 409.14 40.533 409.838 42.1424C410.531 43.757 411.484 45.158 412.692 46.3507C413.901 47.5486 415.323 48.4861 416.963 49.1632C418.599 49.8455 420.344 50.184 422.192 50.184C423.177 50.184 424.192 50.0695 425.234 49.8299C426.276 49.5799 427.203 49.2257 428.026 48.7674C428.484 48.5486 428.713 48.2622 428.713 47.9132C428.713 47.7205 428.656 47.5538 428.547 47.4132C428.432 47.2778 428.276 47.2049 428.067 47.2049C427.984 47.2049 427.901 47.2257 427.817 47.2674C427.734 47.309 427.531 47.4028 427.213 47.5382C425.505 48.3299 423.802 48.7257 422.109 48.7257C420.453 48.7257 418.906 48.4132 417.463 47.7882C416.031 47.1632 414.781 46.3195 413.713 45.2465C412.64 44.1632 411.797 42.9028 411.172 41.4549C410.547 39.9965 410.234 38.4445 410.234 36.7882ZM430.672 37.0382C430.672 35.7882 430.448 34.632 430.005 33.559C429.573 32.4913 428.969 31.5695 428.192 30.7882C427.427 30.0122 426.51 29.4028 425.442 28.9549C424.37 28.5122 423.224 28.2882 422.005 28.2882C421.432 28.2882 420.88 28.3455 420.338 28.4549C419.807 28.5538 419.338 28.6788 418.922 28.8299C418.505 28.9861 418.172 29.1632 417.922 29.3715C417.682 29.5695 417.567 29.7778 417.567 29.9965C417.567 30.4861 417.781 30.7257 418.213 30.7257C418.323 30.7257 418.536 30.658 418.859 30.5174C419.885 30.007 420.969 29.7465 422.109 29.7465C423.12 29.7465 424.057 29.934 424.922 30.309C425.797 30.6736 426.552 31.1945 427.192 31.8715C427.828 32.5382 428.328 33.3247 428.692 34.2257C429.052 35.1163 429.234 36.0695 429.234 37.0799C429.234 37.5122 429.192 37.9132 429.109 38.2882C429.036 38.6528 428.906 39.0903 428.713 39.6007C428.599 39.9497 428.547 40.1632 428.547 40.2465C428.547 40.4132 428.609 40.5695 428.734 40.7049C428.859 40.8299 429.026 40.8924 429.234 40.8924C429.594 40.8924 429.88 40.6528 430.088 40.1632C430.281 39.7361 430.427 39.2413 430.526 38.684C430.62 38.132 430.672 37.5799 430.672 37.0382ZM413.276 27.1424C413.036 27.1424 412.828 27.2361 412.651 27.4132C412.469 27.5799 412.38 27.7778 412.38 27.9965C412.38 28.2465 412.469 28.4653 412.651 28.6424C412.828 28.809 413.036 28.8924 413.276 28.8924C413.495 28.8924 413.692 28.809 413.859 28.6424C414.036 28.4653 414.13 28.2465 414.13 27.9965C414.13 27.7778 414.036 27.5799 413.859 27.4132C413.692 27.2361 413.495 27.1424 413.276 27.1424Z" fill="#D9D9D9"/>
</svg>
